<svg width="13" height="26" viewBox="0 0 13 26" fill="none" xmlns="http://www.w3.org/2000/svg">
<path d="M10.7787 25.25C10.511 25.2509 10.2465 25.1932 10.0047 25.0811C9.76285 24.9691 9.54979 24.8055 9.38116 24.6025L0.727409 14.1025C0.463888 13.7894 0.319826 13.3966 0.319826 12.9912C0.319826 12.5859 0.463887 12.1931 0.727409 11.88L9.68574 1.37999C9.98986 1.02261 10.4269 0.797871 10.9006 0.755206C11.3744 0.712541 11.8461 0.85545 12.212 1.15249C12.5779 1.44953 12.808 1.87638 12.8517 2.33913C12.8953 2.80187 12.749 3.26261 12.4449 3.61999L4.43616 13L12.1762 22.38C12.3953 22.6369 12.5344 22.9497 12.5772 23.2814C12.62 23.6131 12.5646 23.9498 12.4176 24.2517C12.2706 24.5537 12.0381 24.8081 11.7476 24.9851C11.4572 25.162 11.1209 25.2539 10.7787 25.25Z" fill="#E51A30"/>
</svg>
