<svg width="13" height="26" viewBox="0 0 13 26" fill="none" xmlns="http://www.w3.org/2000/svg">
<path d="M2.22134 0.750005C2.48901 0.749116 2.75348 0.806817 2.99531 0.918868C3.23715 1.03092 3.45021 1.19447 3.61884 1.39751L12.2726 11.8975C12.5361 12.2106 12.6802 12.6034 12.6802 13.0088C12.6802 13.4141 12.5361 13.8069 12.2726 14.12L3.31426 24.62C3.01014 24.9774 2.57313 25.2021 2.09937 25.2448C1.62561 25.2875 1.15389 25.1445 0.788006 24.8475C0.422117 24.5505 0.192024 24.1236 0.148344 23.6609C0.104664 23.1981 0.250974 22.7374 0.555089 22.38L8.56384 13L0.823842 3.62C0.604751 3.36313 0.465579 3.05034 0.422795 2.71862C0.380011 2.38691 0.435404 2.05017 0.58242 1.74825C0.729438 1.44633 0.961925 1.19186 1.25237 1.01495C1.54282 0.83804 1.87907 0.746099 2.22134 0.750005Z" fill="#E51A30"/>
</svg>
