<svg width="19" height="19" viewBox="0 0 19 19" fill="none" xmlns="http://www.w3.org/2000/svg">
<path d="M3.19993 1.27188L9.49993 7.57188L15.7999 1.29097C15.924 1.16476 16.0729 1.06566 16.2372 0.999941C16.4015 0.934219 16.5776 0.903306 16.7545 0.909155C17.1015 0.931614 17.4285 1.07962 17.6745 1.32554C17.9204 1.57145 18.0684 1.89847 18.0908 2.24552C18.0926 2.41616 18.0596 2.58537 17.994 2.74289C17.9283 2.90041 17.8314 3.04296 17.709 3.16188L11.3899 9.50006L17.709 15.8382C17.9572 16.0788 18.0947 16.411 18.0908 16.7546C18.0684 17.1017 17.9204 17.4287 17.6745 17.6746C17.4285 17.9205 17.1015 18.0685 16.7545 18.091C16.5776 18.0968 16.4015 18.0659 16.2372 18.0002C16.0729 17.9345 15.924 17.8354 15.7999 17.7092L9.49993 11.4282L3.21902 17.7092C3.09498 17.8354 2.9461 17.9345 2.7818 18.0002C2.61749 18.0659 2.44134 18.0968 2.26448 18.091C1.91095 18.0726 1.57677 17.9239 1.32646 17.6735C1.07614 17.4232 0.927423 17.089 0.909021 16.7355C0.907294 16.5649 0.940246 16.3957 1.00588 16.2382C1.07151 16.0806 1.16846 15.9381 1.29084 15.8192L7.60993 9.50006L1.27175 3.16188C1.15281 3.04135 1.0594 2.89808 0.997074 2.74064C0.934752 2.58319 0.904804 2.4148 0.909021 2.24552C0.93148 1.89847 1.07949 1.57145 1.3254 1.32554C1.57132 1.07962 1.89833 0.931614 2.24538 0.909155C2.42087 0.90082 2.5962 0.928726 2.76042 0.991133C2.92465 1.05354 3.07426 1.14911 3.19993 1.27188Z" fill="white"/>
</svg>
