<svg width="31" height="31" viewBox="0 0 31 31" fill="none" xmlns="http://www.w3.org/2000/svg">
<g clip-path="url(#clip0)">
<path d="M26.8747 9.18052H23.083C23.083 7.09511 21.3768 5.38885 19.2913 5.38885H4.12467C2.03926 5.38885 0.333008 7.09511 0.333008 9.18052V18.0277C0.333008 20.1132 2.03926 21.8194 4.12467 21.8194V25.6111L7.91634 21.8194C7.91634 23.9048 9.62259 25.6111 11.708 25.6111H21.8191L25.6108 29.4027V25.6111H26.8747C28.9601 25.6111 30.6663 23.9048 30.6663 21.8194V12.9722C30.6663 10.8868 28.9601 9.18052 26.8747 9.18052ZM4.12467 19.2916C3.43965 19.2916 2.86079 18.7128 2.86079 18.0277V9.18052C2.86079 8.49549 3.43965 7.91663 4.12467 7.91663H19.2913C19.9764 7.91663 20.5552 8.49549 20.5552 9.18052V10.4444H12.34C11.5021 10.4451 10.6988 10.7782 10.1064 11.3706C9.51401 11.963 9.1809 12.7663 9.18023 13.6041V19.2916H4.12467ZM28.1386 21.8194C28.1386 22.5044 27.5597 23.0833 26.8747 23.0833H11.708C11.023 23.0833 10.4441 22.5044 10.4441 21.8194V13.6041C10.4441 12.5589 11.2947 11.7083 12.34 11.7083H26.8747C27.5597 11.7083 28.1386 12.2872 28.1386 12.9722V21.8194Z" fill="white"/>
</g>
<defs>
<clipPath id="clip0">
<rect width="30.3333" height="30.3333" fill="white" transform="translate(0.333008 0.333313)"/>
</clipPath>
</defs>
</svg>
