<svg width="49" height="41" viewBox="0 0 49 41" fill="none" xmlns="http://www.w3.org/2000/svg">
<path d="M37.9268 20.5006L48.6395 2.29049C48.8789 1.8829 48.8326 1.36747 48.5231 1.00948C48.2147 0.649336 47.7101 0.528567 47.2733 0.705406L0.898348 19.4762C0.481059 19.6466 0.208252 20.0499 0.208252 20.5006C0.208252 20.9513 0.481059 21.3546 0.898348 21.525L47.2733 40.2958C47.4071 40.3497 47.5483 40.3756 47.6874 40.3756C48.0012 40.3756 48.3096 40.2419 48.5231 39.9917C48.8326 39.6338 48.8789 39.1183 48.6395 38.7107L37.9268 20.5006ZM34.8644 25.079L35.6106 27.6087L22.8437 22.1569L34.8644 25.079ZM35.5416 19.3964L19.6002 19.9485L35.5416 14.3846V19.3964Z" fill="url(#paint0_linear_60_461)"/>
<defs>
<linearGradient id="paint0_linear_60_461" x1="47.262" y1="40.375" x2="-2.07746" y2="37.3003" gradientUnits="userSpaceOnUse">
<stop class="stop_1"  stop-color="#303C42"/>
<stop class="stop_2" offset="1" stop-color="#303C42"/>
<!-- <stop stop-color="#00BAFF"/>
<stop offset="1" stop-color="#0292D8"/> -->
</linearGradient>
</defs>
</svg>
