<svg width="49" height="41" viewBox="0 0 49 41" fill="none" xmlns="http://www.w3.org/2000/svg">
<path d="M11.073 20.4994L0.360206 38.7095C0.120827 39.1171 0.16719 39.6325 0.476662 39.9905C0.785049 40.3507 1.28969 40.4714 1.72641 40.2946L48.1014 21.5238C48.5187 21.3534 48.7915 20.9501 48.7915 20.4994C48.7915 20.0487 48.5187 19.6454 48.1014 19.475L1.72641 0.704182C1.59269 0.650269 1.45143 0.62439 1.31233 0.62439C0.998547 0.62439 0.690159 0.758099 0.476658 1.00826C0.167187 1.36625 0.120823 1.88167 0.360203 2.28927L11.073 20.4994ZM14.1353 15.921L13.3892 13.3913L26.1561 18.8431L14.1353 15.921ZM13.4582 21.6036L29.3996 21.0515L13.4582 26.6154L13.4582 21.6036Z" fill="url(#paint0_linear_60_460)"/>
<defs>
<linearGradient id="paint0_linear_60_460" x1="47.262" y1="40.375" x2="-2.07746" y2="37.3003" gradientUnits="userSpaceOnUse">
<stop class="stop_1"  stop-color="#303C42"/>
<stop class="stop_2" offset="1" stop-color="#303C42"/>
</linearGradient>
</defs>
</svg>
