<svg width="20" height="20" viewBox="0 0 20 20" fill="none" xmlns="http://www.w3.org/2000/svg">
<path fill-rule="evenodd" clip-rule="evenodd" d="M18.7264 14.4119C18.0606 13.3971 16.6306 12.6287 13.7819 11.098L13.4857 10.9387L10.0443 14.4112C9.95371 14.5026 9.83038 14.554 9.70169 14.5542C9.70149 14.5542 9.70128 14.5542 9.70107 14.5542C9.57269 14.5542 9.44947 14.503 9.35873 14.412L5.89961 10.9382C5.6177 11.0894 5.34867 11.233 5.09181 11.3702C2.48824 12.7603 1.18146 13.4582 0.581944 14.4294C-0.0135482 15.394 -0.00818576 16.7993 0.00264138 19.5992C0.00326007 19.7289 0.00367247 19.8614 0.00418805 19.9968H19.394C19.3936 19.8659 19.3933 19.7379 19.3929 19.6125C19.3849 16.814 19.3807 15.4092 18.7264 14.4119ZM9.692 17.7152C9.18106 17.7152 8.76643 17.3026 8.76643 16.7938C8.76643 16.2848 9.18106 15.8719 9.692 15.8719C10.2037 15.8719 10.6181 16.2849 10.6181 16.7938C10.6182 17.3026 10.2037 17.7152 9.692 17.7152Z" fill="#00729E"/>
<path fill-rule="evenodd" clip-rule="evenodd" d="M9.78132 11.0166C12.72 11.0166 14.323 6.65106 14.323 4.40819C14.323 1.97755 12.2857 0 9.78132 0C7.27654 0 5.23877 1.97755 5.23877 4.40819C5.23887 6.65106 6.84211 11.0166 9.78132 11.0166Z" fill="#00729E"/>
</svg>
