<svg width="139" height="38" viewBox="0 0 139 38" fill="none" xmlns="http://www.w3.org/2000/svg">
<path d="M50.9499 27.8498C47.7999 33.7498 41.5499 37.7998 34.3999 37.7998C24.0499 37.7998 15.6499 29.3998 15.6499 19.0498C15.6499 8.69981 24.0499 0.299805 34.3999 0.299805C41.5499 0.299805 47.7999 4.2998 50.9499 10.2498H34.3499L29.2499 18.9998L34.3499 27.7998H50.9499V27.8498Z" fill="#00729E"/>
<path d="M18.1998 10.2002V27.8502H0.549805L4.04981 20.8002H10.5498C11.0498 20.8002 11.4498 20.6002 11.7998 20.3002C12.0998 20.0002 12.2998 19.5502 12.2998 19.0502C12.2998 18.0502 11.4998 17.2502 10.4998 17.2502H5.84981L9.34982 10.2002H18.1998Z" fill="#00729E"/>
<path d="M41.0499 14.7998H37.3999V18.4498H41.0499V14.7998Z" fill="#00729E"/>
<path d="M46.0499 14.7998H42.3999V18.4498H46.0499V14.7998Z" fill="#00729E"/>
<path d="M41.0499 19.6001H37.3999V23.2501H41.0499V19.6001Z" fill="#00729E"/>
<path d="M46.0499 19.6001H42.3999V23.2501H46.0499V19.6001Z" fill="#00729E"/>
<path d="M59.7002 27.4518V12.5518C59.7002 12.0018 59.8002 11.4017 60.3502 10.9017C60.9502 10.3517 61.6002 10.3018 62.2002 10.3018H73.3501V12.8518H63.7502C63.5502 12.8518 63.3502 12.8518 63.1502 13.0518C62.9502 13.2518 62.9502 13.5018 62.9502 13.7518V17.4518H70.5001V20.0018H62.9002V27.4017H59.7002V27.4518Z" fill="#333333"/>
<path d="M75.4004 27.4498V10.2998H78.6504V27.4498H75.4004Z" fill="#333333"/>
<path d="M92.8503 27.4498L88.2503 21.0498L83.6503 27.4498H79.8003L86.4003 18.7498L80.0003 10.2998H83.8503L88.2503 16.4498L92.6503 10.2998H96.5002L90.1003 18.7498L96.7003 27.4498H92.8503Z" fill="#333333"/>
<path d="M97.9004 27.4498V10.2998H101.15V27.4498H97.9004Z" fill="#333333"/>
<path d="M119.1 25.5496C119.1 25.8496 119.1 26.5996 118.65 26.9996C118.3 27.3496 117.55 27.4496 117.1 27.4496H110.45C108.95 27.4496 107.65 26.9496 106.7 26.1996C104.5 24.4496 104.3 21.3996 104.3 18.9996C104.3 16.0996 104.6 12.9496 107.35 11.2996C108.75 10.4496 110.3 10.3496 111.35 10.3496H118.7V11.5496H111C108.85 11.5496 107.3 12.6496 106.5 14.0996C105.8 15.4496 105.7 17.6496 105.7 18.8996C105.7 22.0996 106.3 23.4496 106.45 23.7996C107.05 25.0996 108.4 26.2496 110.4 26.2496H116.7C116.95 26.2496 117.3 26.2496 117.5 25.9996C117.65 25.7996 117.7 25.4496 117.7 25.1996V19.5996H119V25.5496H119.1Z" fill="#333333"/>
<path d="M136.6 11.9999C138.55 13.9499 138.65 16.8999 138.65 18.8999C138.65 20.8999 138.55 23.8499 136.6 25.7999C134.85 27.5499 132.25 27.6499 130.35 27.6499C128.45 27.6499 125.85 27.5499 124.1 25.7999C122.15 23.8499 122.05 20.8999 122.05 18.8999C122.05 16.8999 122.15 13.9499 124.1 11.9999C125.85 10.2499 128.45 10.1499 130.35 10.1499C132.25 10.1499 134.85 10.2499 136.6 11.9999ZM124.95 24.8499C126.4 26.4999 128.7 26.4999 130.35 26.4999C132 26.4999 134.3 26.4999 135.75 24.8499C137.15 23.2499 137.2 20.8999 137.2 18.8999C137.2 16.8999 137.15 14.5499 135.75 12.9499C134.3 11.2999 132 11.2999 130.35 11.2999C128.7 11.2999 126.4 11.2999 124.95 12.9499C123.55 14.5499 123.5 16.8999 123.5 18.8999C123.45 20.8999 123.5 23.2499 124.95 24.8499Z" fill="#333333"/>
</svg>
