<svg width="16" height="24" viewBox="0 0 16 24" fill="none" xmlns="http://www.w3.org/2000/svg">
<path d="M8.0001 0.22583C3.80386 0.22583 0.401855 3.62783 0.401855 7.82408C0.401855 8.52721 0.49748 9.20895 0.676355 9.85583C0.748355 10.1146 0.83273 10.3688 0.930605 10.6152L1.16123 11.1383L8.0001 23.7743L14.848 11.1192L15.0561 10.6478C15.1596 10.3902 15.2485 10.1258 15.3239 9.8547C15.5027 9.20783 15.5984 8.5272 15.5984 7.82295C15.5984 3.62783 12.1964 0.22583 8.0001 0.22583ZM8.0001 11.1158C6.14386 11.1158 4.63861 9.61058 4.63861 7.75433C4.63861 5.89808 6.14386 4.39283 8.0001 4.39283C9.85635 4.39283 11.3616 5.89808 11.3616 7.75433C11.3616 9.6117 9.85635 11.1158 8.0001 11.1158Z" fill="#00729E"/>
</svg>
