<svg width="22" height="22" viewBox="0 0 22 22" fill="none" xmlns="http://www.w3.org/2000/svg">
<path d="M20.625 21.3125H1.375C1.19266 21.3125 1.0178 21.2401 0.888864 21.1111C0.759933 20.9822 0.6875 20.8073 0.6875 20.625V8.25C0.6875 8.06766 0.759933 7.8928 0.888864 7.76386C1.0178 7.63493 1.19266 7.5625 1.375 7.5625C1.55734 7.5625 1.7322 7.63493 1.86114 7.76386C1.99007 7.8928 2.0625 8.06766 2.0625 8.25V19.9375H19.9375V8.25C19.9375 8.06766 20.0099 7.8928 20.1389 7.76386C20.2678 7.63493 20.4427 7.5625 20.625 7.5625C20.8073 7.5625 20.9822 7.63493 21.1111 7.76386C21.2401 7.8928 21.3125 8.06766 21.3125 8.25V20.625C21.3125 20.8073 21.2401 20.9822 21.1111 21.1111C20.9822 21.2401 20.8073 21.3125 20.625 21.3125Z" fill="#0A153D"/>
<path d="M20.6254 8.93726C20.4821 8.93633 20.3427 8.89066 20.2267 8.80663L11.0004 2.22038L1.77417 8.80663C1.62615 8.89429 1.45065 8.92328 1.2823 8.88787C1.11396 8.85246 0.965008 8.75522 0.864855 8.61535C0.764702 8.47548 0.720625 8.30314 0.741326 8.13236C0.762027 7.96158 0.846001 7.80477 0.976671 7.69288L10.6017 0.817881C10.7181 0.734979 10.8575 0.69043 11.0004 0.69043C11.1434 0.69043 11.2827 0.734979 11.3992 0.817881L21.0242 7.69288C21.1416 7.77786 21.2291 7.89775 21.2743 8.03544C21.3194 8.17313 21.3199 8.32157 21.2757 8.45957C21.2315 8.59756 21.1448 8.71806 21.028 8.80385C20.9112 8.88964 20.7703 8.93633 20.6254 8.93726Z" fill="#0A153D"/>
<path d="M11.0004 15.4962C10.5724 15.5028 10.1533 15.3727 9.80417 15.125L0.976671 8.80687C0.846001 8.69498 0.762027 8.53817 0.741326 8.36739C0.720625 8.19661 0.764702 8.02427 0.864855 7.8844C0.965008 7.74453 1.11396 7.6473 1.2823 7.61188C1.45065 7.57647 1.62615 7.60546 1.77417 7.69312L10.6017 13.9975C10.7181 14.0804 10.8575 14.1249 11.0004 14.1249C11.1434 14.1249 11.2827 14.0804 11.3992 13.9975L20.2267 7.69312C20.2991 7.63113 20.3835 7.58488 20.4748 7.55728C20.566 7.52969 20.6619 7.52136 20.7566 7.53283C20.8512 7.5443 20.9424 7.57531 21.0243 7.6239C21.1063 7.67249 21.1773 7.73759 21.2328 7.81508C21.2883 7.89256 21.3271 7.98074 21.3466 8.07401C21.3662 8.16727 21.3662 8.2636 21.3466 8.35686C21.327 8.45012 21.2882 8.53828 21.2327 8.61575C21.1772 8.69322 21.1062 8.75831 21.0242 8.80687L12.1967 15.125C11.8475 15.3727 11.4285 15.5028 11.0004 15.4962Z" fill="#0A153D"/>
<path d="M7.17965 14.549L0.990234 18.6753L1.75295 19.8194L7.94236 15.6931L7.17965 14.549Z" fill="#0A153D"/>
<path d="M14.8154 14.5522L14.0527 15.6963L20.2422 19.8226L21.0049 18.6785L14.8154 14.5522Z" fill="#0A153D"/>
<path d="M15.8125 7.5625H6.1875V8.9375H15.8125V7.5625Z" fill="#0A153D"/>
</svg>
