<svg width="22" height="18" viewBox="0 0 22 18" fill="none" xmlns="http://www.w3.org/2000/svg">
<path d="M20.625 17.25H1.375C1.19266 17.25 1.0178 17.1776 0.888864 17.0486C0.759933 16.9197 0.6875 16.7448 0.6875 16.5625V1.4375C0.6875 1.25516 0.759933 1.0803 0.888864 0.951364C1.0178 0.822433 1.19266 0.75 1.375 0.75H20.625C20.8073 0.75 20.9822 0.822433 21.1111 0.951364C21.2401 1.0803 21.3125 1.25516 21.3125 1.4375V16.5625C21.3125 16.7448 21.2401 16.9197 21.1111 17.0486C20.9822 17.1776 20.8073 17.25 20.625 17.25ZM2.0625 15.875H19.9375V2.125H2.0625V15.875Z" fill="#00729E"/>
<path d="M11 9.94191C10.5076 9.94004 10.032 9.76202 9.65941 9.44004L0.928159 1.96004C0.789584 1.84152 0.703765 1.6728 0.689583 1.49101C0.68256 1.401 0.693336 1.31048 0.721296 1.22463C0.749255 1.13878 0.79385 1.05928 0.852534 0.990661C0.911219 0.922045 0.982844 0.86566 1.06332 0.824725C1.14379 0.78379 1.23154 0.759107 1.32156 0.752084C1.50335 0.737902 1.68333 0.796517 1.82191 0.915036L10.5532 8.40191C10.6777 8.50843 10.8362 8.56696 11 8.56696C11.1639 8.56696 11.3224 8.50843 11.4469 8.40191L20.1782 0.915036C20.2468 0.856351 20.3263 0.811757 20.4121 0.783798C20.498 0.755838 20.5885 0.745062 20.6785 0.752084C20.7685 0.759107 20.8563 0.78379 20.9368 0.824725C21.0172 0.86566 21.0889 0.922045 21.1475 0.990661C21.2062 1.05928 21.2508 1.13878 21.2788 1.22463C21.3067 1.31048 21.3175 1.401 21.3105 1.49101C21.3035 1.58103 21.2788 1.66878 21.2378 1.74925C21.1969 1.82973 21.1405 1.90135 21.0719 1.96004L12.375 9.44004C11.9935 9.76981 11.5043 9.94835 11 9.94191Z" fill="#00729E"/>
<path d="M7.17965 9.80049L0.990234 13.9268L1.75295 15.0708L7.94236 10.9446L7.17965 9.80049Z" fill="#00729E"/>
<path d="M14.8164 9.8032L14.0537 10.9473L20.2431 15.0735L21.0058 13.9295L14.8164 9.8032Z" fill="#00729E"/>
</svg>
