<svg width="34" height="31" viewBox="0 0 34 31" fill="none" xmlns="http://www.w3.org/2000/svg">
<path d="M10.4079 0.5L10.217 0.512843C9.53064 0.605956 9.00161 1.19431 9.00161 1.90625L9 25.7038L2.9627 19.6708L2.80492 19.5346C2.25423 19.1264 1.473 19.1722 0.973964 19.6715C0.42502 20.2211 0.425396 21.1113 0.974789 21.6603L9.41934 30.0978L9.57712 30.2339C10.1278 30.6421 10.909 30.5964 11.4081 30.0971L19.8386 21.6596L19.9746 21.5017C20.3829 20.951 20.3372 20.1697 19.8377 19.6708L19.68 19.5346C19.1293 19.1264 18.348 19.1722 17.8489 19.6715L11.8125 25.7113L11.8141 1.90625L11.8013 1.71543C11.7082 1.02903 11.1198 0.5 10.4079 0.5ZM16.9687 1.4375C16.1921 1.4375 15.5625 2.06711 15.5625 2.84375C15.5625 3.62039 16.1921 4.25 16.9687 4.25H31.9687C32.7454 4.25 33.375 3.62039 33.375 2.84375C33.375 2.06711 32.7454 1.4375 31.9687 1.4375H16.9687ZM15.5625 8.46875C15.5625 7.69211 16.1921 7.0625 16.9687 7.0625H26.3437C27.1204 7.0625 27.75 7.69211 27.75 8.46875C27.75 9.24539 27.1204 9.875 26.3437 9.875H16.9687C16.1921 9.875 15.5625 9.24539 15.5625 8.46875ZM16.9687 12.6875C16.1921 12.6875 15.5625 13.3171 15.5625 14.0938C15.5625 14.8704 16.1921 15.5 16.9687 15.5H20.7187C21.4954 15.5 22.125 14.8704 22.125 14.0938C22.125 13.3171 21.4954 12.6875 20.7187 12.6875H16.9687Z" fill="#0A153D"/>
</svg>
