<svg width="20" height="20" viewBox="0 0 20 20" fill="none" xmlns="http://www.w3.org/2000/svg">
<path d="M2.35401 5.3694C1.49529 6.76489 1 8.40794 1 10.1667C1 15.2293 5.10406 19.3333 10.1667 19.3333C15.2293 19.3333 19.3333 15.2293 19.3333 10.1667C19.3333 5.10406 15.2293 1 10.1667 1C9.43746 1 8.72815 1.08515 8.04812 1.24604" stroke="#0BA7FF" stroke-linecap="round" stroke-linejoin="round"/>
<path d="M4.49992 3.58333C5.00618 3.58333 5.41658 3.17293 5.41658 2.66667C5.41658 2.16041 5.00618 1.75 4.49992 1.75C3.99366 1.75 3.58325 2.16041 3.58325 2.66667C3.58325 3.17293 3.99366 3.58333 4.49992 3.58333Z" fill="#0BA7FF"/>
</svg>
