<svg width="22" height="22" viewBox="0 0 22 22" fill="none" xmlns="http://www.w3.org/2000/svg">
<path d="M11 21.7422C5.07719 21.7422 0.257812 16.9228 0.257812 11C0.257812 5.0765 5.07719 0.257812 11 0.257812C16.9228 0.257812 21.7422 5.0765 21.7422 11C21.7422 16.9228 16.9228 21.7422 11 21.7422Z" fill="white"/>
<path d="M11 0.515625C16.7812 0.515625 21.4844 5.21881 21.4844 11C21.4844 16.7812 16.7812 21.4844 11 21.4844C5.21881 21.4844 0.515625 16.7812 0.515625 11C0.515625 5.21881 5.21881 0.515625 11 0.515625ZM11 0C4.92456 0 0 4.92456 0 11C0 17.0748 4.92456 22 11 22C17.0754 22 22 17.0748 22 11C22 4.92456 17.0754 0 11 0Z" fill="white"/>
<path fill-rule="evenodd" clip-rule="evenodd" d="M16.3326 13.696C15.9257 13.0759 15.0518 12.6063 13.3109 11.6709L13.1299 11.5736L11.0269 13.6956C10.9715 13.7515 10.8961 13.7829 10.8175 13.783C10.8174 13.783 10.8172 13.783 10.8171 13.783C10.7387 13.783 10.6633 13.7517 10.6079 13.6961L8.49399 11.5732C8.32171 11.6656 8.1573 11.7534 8.00033 11.8372C6.40926 12.6867 5.61067 13.1132 5.2443 13.7067C4.88039 14.2962 4.88367 15.155 4.89029 16.8661C4.89066 16.9453 4.89092 17.0263 4.89123 17.1091H16.7406C16.7403 17.029 16.7401 16.9508 16.7399 16.8742C16.735 15.164 16.7325 14.3055 16.3326 13.696ZM10.8116 15.7147C10.4993 15.7147 10.2459 15.4626 10.2459 15.1516C10.2459 14.8406 10.4993 14.5883 10.8116 14.5883C11.1242 14.5883 11.3775 14.8406 11.3775 15.1516C11.3776 15.4626 11.1242 15.7147 10.8116 15.7147Z" fill="#00729E"/>
<path fill-rule="evenodd" clip-rule="evenodd" d="M10.8663 11.621C12.6622 11.621 13.6418 8.95321 13.6418 7.58257C13.6418 6.09717 12.3968 4.88867 10.8663 4.88867C9.33564 4.88867 8.09033 6.09717 8.09033 7.58257C8.0904 8.95321 9.07015 11.621 10.8663 11.621Z" fill="#00729E"/>
</svg>
