<svg width="22" height="22" viewBox="0 0 22 22" fill="none" xmlns="http://www.w3.org/2000/svg">
<path d="M11 21.7422C5.07719 21.7422 0.257812 16.9228 0.257812 11C0.257812 5.0765 5.07719 0.257812 11 0.257812C16.9228 0.257812 21.7422 5.0765 21.7422 11C21.7422 16.9228 16.9228 21.7422 11 21.7422Z" fill="url(#paint0_linear_162_3276)"/>
<path d="M11 0.515625C16.7812 0.515625 21.4844 5.21881 21.4844 11C21.4844 16.7812 16.7812 21.4844 11 21.4844C5.21881 21.4844 0.515625 16.7812 0.515625 11C0.515625 5.21881 5.21881 0.515625 11 0.515625ZM11 0C4.92456 0 0 4.92456 0 11C0 17.0748 4.92456 22 11 22C17.0754 22 22 17.0748 22 11C22 4.92456 17.0754 0 11 0Z" fill="url(#paint1_linear_162_3276)"/>
<path fill-rule="evenodd" clip-rule="evenodd" d="M16.3326 13.6963C15.9257 13.0761 15.0518 12.6066 13.3109 11.6711L13.1299 11.5738L11.0269 13.6958C10.9715 13.7517 10.8961 13.7831 10.8175 13.7832C10.8174 13.7832 10.8172 13.7832 10.8171 13.7832C10.7387 13.7832 10.6633 13.752 10.6079 13.6963L8.49399 11.5735C8.32171 11.6659 8.1573 11.7536 8.00033 11.8375C6.40926 12.687 5.61067 13.1135 5.2443 13.707C4.88039 14.2964 4.88367 15.1553 4.89029 16.8663C4.89066 16.9456 4.89092 17.0266 4.89123 17.1093H16.7406C16.7403 17.0293 16.7401 16.9511 16.7399 16.8744C16.735 15.1642 16.7325 14.3058 16.3326 13.6963ZM10.8116 15.715C10.4993 15.715 10.2459 15.4628 10.2459 15.1519C10.2459 14.8408 10.4993 14.5885 10.8116 14.5885C11.1242 14.5885 11.3775 14.8409 11.3775 15.1519C11.3776 15.4628 11.1242 15.715 10.8116 15.715Z" fill="white"/>
<path fill-rule="evenodd" clip-rule="evenodd" d="M10.8663 11.6213C12.6622 11.6213 13.6418 8.95345 13.6418 7.58281C13.6418 6.09742 12.3968 4.88892 10.8663 4.88892C9.33564 4.88892 8.09033 6.09742 8.09033 7.58281C8.0904 8.95345 9.07015 11.6213 10.8663 11.6213Z" fill="white"/>
<defs>
<linearGradient id="paint0_linear_162_3276" x1="0.934172" y1="0.257815" x2="22.7808" y2="1.37173" gradientUnits="userSpaceOnUse">
<stop stop-color="#00BAFF"/>
<stop offset="1" stop-color="#0292D8"/>
</linearGradient>
<linearGradient id="paint1_linear_162_3276" x1="0.692592" y1="2.2764e-06" x2="23.0636" y2="1.14065" gradientUnits="userSpaceOnUse">
<stop stop-color="#00BAFF"/>
<stop offset="1" stop-color="#0292D8"/>
</linearGradient>
</defs>
</svg>
